<svg xmlns="http://www.w3.org/2000/svg" viewBox="0 0 1200 120" preserveAspectRatio="none">
  <defs>
    <linearGradient id="cyberGrad" x1="0%" y1="0%" x2="100%" y2="0%">
      <stop offset="0%" stop-color="#00D9FF" />
      <stop offset="50%" stop-color="#8b5cf6" />
      <stop offset="100%" stop-color="#f59e0b" />
    </linearGradient>
  </defs>
  <path d="M0,32L120,42.7C240,53,480,75,720,74.7C960,75,1200,53,1320,42.7L1440,32L1440,0L1320,0C1200,0,960,0,720,0C480,0,240,0,120,0L0,0Z" fill="url(#cyberGrad)" opacity="0.85"></path>
  <path d="M0,50L120,45C240,40,480,30,720,35C960,40,1200,50,1320,55L1440,60L1440,0L1320,0C1200,0,960,0,720,0C480,0,240,0,120,0L0,0Z" fill="url(#cyberGrad)" opacity="0.3"></path>
</svg>
